<?xml version="1.0" encoding="UTF-8" standalone="no"?>
<svg
   xmlns:svg="http://www.w3.org/2000/svg"
   xmlns="http://www.w3.org/2000/svg"
   xmlns:xlink="http://www.w3.org/1999/xlink"
   version="1.0"
   width="640"
   height="440">
  <title>Tangentialvektor</title>
  <defs>
    <linearGradient
       id="linearGradient3167">
      <stop
         id="stop3169"
         style="stop-color:#e1e1e1;stop-opacity:0.77777779"
         offset="0" />
      <stop
         id="stop3171"
         style="stop-color:#cdcdcd;stop-opacity:0.40476191"
         offset="1" />
    </linearGradient>
    <linearGradient
       id="linearGradient3175">
      <stop
         id="stop3177"
         style="stop-color:#0000ff;stop-opacity:1"
         offset="0" />
      <stop
         id="stop3179"
         style="stop-color:#00003c;stop-opacity:1"
         offset="1" />
    </linearGradient>
    <linearGradient
       x1="101.24868"
       y1="171.1395"
       x2="110.73028"
       y2="203.43408"
       id="linearGradient3181"
       xlink:href="#linearGradient3175"
       gradientUnits="userSpaceOnUse" />
    <linearGradient
       x1="125.9691"
       y1="203.37529"
       x2="125.56466"
       y2="225.98248"
       id="linearGradient3183"
       xlink:href="#linearGradient3175"
       gradientUnits="userSpaceOnUse" />
    <linearGradient
       x1="125.9691"
       y1="203.37529"
       x2="125.56466"
       y2="225.98248"
       id="linearGradient3189"
       xlink:href="#linearGradient3175"
       gradientUnits="userSpaceOnUse"
       gradientTransform="matrix(0.9466651,-0.3222193,0.3222193,0.9466651,5.7091234e-3,1.4849849e-2)" />
    <linearGradient
       x1="101.24868"
       y1="171.1395"
       x2="110.73028"
       y2="203.43408"
       id="linearGradient3191"
       xlink:href="#linearGradient3175"
       gradientUnits="userSpaceOnUse"
       gradientTransform="translate(5.7091234e-3,1.4849849e-2)" />
    <radialGradient
       cx="256.60583"
       cy="77.433411"
       r="295.5"
       fx="256.60583"
       fy="77.433411"
       id="radialGradient3175"
       xlink:href="#linearGradient3167"
       gradientUnits="userSpaceOnUse"
       gradientTransform="matrix(-0.9999772,6.7519619e-3,-3.952264e-3,-0.5853373,513.51184,186.54827)" />
  </defs>
  <rect
     width="640"
     height="440"
     x="0"
     y="0"
     style="fill:#fff" />
  <path
     d="M 120,420 C 71.859661,240.14034 39.456158,168.50881 20,180 C 216.59639,52.947345 434.10531,90.157854 600,300 C 472.87707,231.63153 325.89469,276.28068 120,420 z"
     style="fill:#666" />
  <path
     d="M 50,300 C 170,153.33333 290.38599,98.807006 403.71932,140.14034 C 291.71932,101.47367 171.66667,158 51,306 L 50,300 z"
     style="fill:#300" />
  <path
     d="M 45.320989,210.49788 L 198.78442,211.76224 C 200.50196,212.34685 201.19985,215.57671 198.78442,216.47943 L 45.657242,216.47943 L 45.320989,210.49788 z"
     transform="matrix(0.9466651,-0.3222193,0.3222193,0.9466651,0,0)"
     id="rect3172"
     style="opacity:1;fill:url(#linearGradient3183);fill-opacity:1;stroke:none;stroke-width:1;stroke-miterlimit:4;stroke-dasharray:3, 1;stroke-dashoffset:0;stroke-opacity:0.51627903" />
  <path
     d="M 90,195 L 114.63714,176.45144 C 121.66667,174.69619 127.17716,189.52296 121.73425,194.08005 L 90,195 z"
     id="path24"
     style="fill:url(#linearGradient3181);fill-opacity:1" />
  <polyline
     style="opacity:1;fill:url(#radialGradient3175);fill-opacity:1;stroke:#e1e1e1;stroke-opacity:0.25909089"
     points="110 300  20 110  330 70  610 170 110 300" />
  <ellipse
     cx="255"
     cy="140"
     rx="15"
     ry="6"
     style="opacity:0.5;fill:#fff" />
  <path
     d="M 110.73599,184.68255 L 256.42187,136.4306 C 258.23618,136.4306 259.0531,138.24278 258.69024,139.89834 L 111.53024,189.51101 L 110.73599,184.68255 z"
     style="fill:url(#linearGradient3189);" />
  <path
     d="M 90.005708,195.01485 L 114.64286,176.46629 C 121.67239,174.71104 124.96036,185.09277 123.55427,191.1013 L 90.005708,195.01485 z"
     style="fill:url(#linearGradient3191);" />
  <text
     x="6" y="341"
     style="font-size:48px;fill:#000;font-style:italic; font-family:Nimbus Roman No9 L">γ(t)</text>
  <text
     x="69" y="186"
     style="font-size:48px;fill:#000;font-style:italic; font-family:Nimbus Roman No9 L">υ</text>
  <text
     x="272" y="167"
     style="font-size:48px;fill:#000;font-style:italic; font-family:Nimbus Roman No9 L">x</text>
  <text
     x="316" y="49"
     style="font-size:48px;fill:#000;font-style:italic; font-family:Nimbus Roman No9 L">T<tspan dy="5" style="font-size:42px">x</tspan><tspan dy="-5" style="font-size:48px">M</tspan></text>
  <text
     x="419" y="318"
     style="font-size:48px;fill:#000;font-style:italic; font-family:Nimbus Roman No9 L">M</text>
</svg>
